{
    "accessors" : [
        {
            "bufferView" : 0, 
            "componentType" : 5121, 
            "count" : 516, 
            "max" : [
                87
            ], 
            "min" : [
                0
            ], 
            "type" : "SCALAR"
        }, 
        {
            "bufferView" : 1, 
            "componentType" : 5126, 
            "count" : 88, 
            "max" : [
                1.334537386894226, 
                12.999326705932617, 
                1.4104948043823242
            ], 
            "min" : [
                -1.4864522218704224, 
                -0.7242445945739746, 
                -1.4104948043823242
            ], 
            "type" : "VEC3"
        }, 
        {
            "bufferView" : 2, 
            "componentType" : 5126, 
            "count" : 88, 
            "max" : [
                1.0, 
                0.712424099445343, 
                0.999969482421875
            ], 
            "min" : [
                -1.0, 
                -0.6302377581596375, 
                -0.999969482421875
            ], 
            "type" : "VEC3"
        }, 
        {
            "bufferView" : 3, 
            "componentType" : 5123, 
            "count" : 88, 
            "max" : [
                2, 
                2, 
                0, 
                0
            ], 
            "min" : [
                0, 
                0, 
                0, 
                0
            ], 
            "type" : "VEC4"
        }, 
        {
            "bufferView" : 4, 
            "componentType" : 5126, 
            "count" : 88, 
            "max" : [
                0.9999859929084778, 
                0.9426450133323669, 
                0.0, 
                0.0
            ], 
            "min" : [
                0.054718147963285446, 
                0.0, 
                0.0, 
                0.0
            ], 
            "type" : "VEC4"
        }, 
        {
            "bufferView" : 5, 
            "componentType" : 5126, 
            "count" : 3, 
            "max" : [
                1.0, 
                -2.7533536092901566e-14, 
                2.3841856489070778e-07, 
                0.0, 
                0.0, 
                1.0000001192092896, 
                0.0, 
                0.0, 
                0.11238741874694824, 
                -1.1920930376163597e-07, 
                1.0000001192092896, 
                0.0, 
                0.0, 
                0.0, 
                0.0, 
                1.0
            ], 
            "min" : [
                0.9936645030975342, 
                -2.8421716206667585e-14, 
                -0.11238741874694824, 
                0.0, 
                0.0, 
                1.0000001192092896, 
                0.0, 
                0.0, 
                -2.3841855067985307e-07, 
                -1.1920930376163597e-07, 
                0.993664562702179, 
                0.0, 
                0.0, 
                -12.000000953674316, 
                0.0, 
                1.0
            ], 
            "type" : "MAT4"
        }
    ], 
    "asset" : {
        "generator" : "Khronos Blender glTF 2.0 exporter", 
        "version" : "2.0"
    }, 
    "bufferViews" : [
        {
            "buffer" : 0, 
            "byteLength" : 516, 
            "byteOffset" : 0, 
            "target" : 34963
        }, 
        {
            "buffer" : 0, 
            "byteLength" : 1056, 
            "byteOffset" : 516, 
            "target" : 34962
        }, 
        {
            "buffer" : 0, 
            "byteLength" : 1056, 
            "byteOffset" : 1572, 
            "target" : 34962
        }, 
        {
            "buffer" : 0, 
            "byteLength" : 704, 
            "byteOffset" : 2628, 
            "target" : 34962
        }, 
        {
            "buffer" : 0, 
            "byteLength" : 1408, 
            "byteOffset" : 3332, 
            "target" : 34962
        }, 
        {
            "buffer" : 0, 
            "byteLength" : 192, 
            "byteOffset" : 4740
        }
    ], 
    "buffers" : [
        {
            "byteLength" : 4932, 
            "uri" : "arm.bin"
        }
    ], 
    "meshes" : [
        {
            "name" : "Cylinder", 
            "primitives" : [
                {
                    "attributes" : {
                        "JOINTS_0" : 3, 
                        "NORMAL" : 2, 
                        "POSITION" : 1, 
                        "WEIGHTS_0" : 4
                    }, 
                    "indices" : 0
                }
            ]
        }
    ], 
    "nodes" : [
        {
            "mesh" : 0, 
            "name" : "arm", 
            "skin" : 0
        }, 
        {
            "children" : [
                0, 
                2
            ], 
            "name" : "Armature"
        }, 
        {
            "children" : [
                3
            ], 
            "name" : "Armature_bicep", 
            "rotation" : [
                -2.980232594040899e-08, 
                1.1920927533992653e-07, 
                0.0, 
                1.0
            ], 
            "scale" : [
                1.0, 
                0.9999999403953552, 
                0.9999999403953552
            ]
        }, 
        {
            "children" : [
                4
            ], 
            "name" : "Armature_fore_arm", 
            "rotation" : [
                -2.121810968366681e-15, 
                -0.02427244745194912, 
                1.1943000443652104e-16, 
                0.9997054934501648
            ], 
            "scale" : [
                0.9999999403953552, 
                1.0, 
                1.0
            ], 
            "translation" : [
                0.0, 
                6.489597797393799, 
                0.0
            ]
        }, 
        {
            "name" : "Armature_fore_arm.001", 
            "rotation" : [
                -2.576239909403877e-15, 
                -0.032032497227191925, 
                4.5038263817838247e-17, 
                0.9994869232177734
            ], 
            "scale" : [
                0.9999999403953552, 
                1.0, 
                0.9999999403953552
            ], 
            "translation" : [
                0.0, 
                5.51040506362915, 
                0.0
            ]
        }
    ], 
    "scene" : 0, 
    "scenes" : [
        {
            "name" : "Scene", 
            "nodes" : [
                1
            ]
        }
    ], 
    "skins" : [
        {
            "inverseBindMatrices" : 5, 
            "joints" : [
                2, 
                3, 
                4
            ], 
            "skeleton" : 1
        }
    ]
}
