{
    "accessors" : [
        {
            "bufferView" : 0, 
            "componentType" : 5121, 
            "count" : 204, 
            "max" : [
                135
            ], 
            "min" : [
                0
            ], 
            "type" : "SCALAR"
        }, 
        {
            "bufferView" : 1, 
            "componentType" : 5126, 
            "count" : 136, 
            "max" : [
                1.0000004768371582, 
                1.0, 
                0.9999999403953552
            ], 
            "min" : [
                -13.264074325561523, 
                -1.0, 
                -1.0000001192092896
            ], 
            "type" : "VEC3"
        }, 
        {
            "bufferView" : 2, 
            "componentType" : 5126, 
            "count" : 136, 
            "max" : [
                1.0, 
                1.0, 
                1.0
            ], 
            "min" : [
                -1.0, 
                -1.0, 
                -1.0
            ], 
            "type" : "VEC3"
        }, 
        {
            "bufferView" : 3, 
            "componentType" : 5123, 
            "count" : 136, 
            "max" : [
                1, 
                1, 
                0, 
                0
            ], 
            "min" : [
                0, 
                0, 
                0, 
                0
            ], 
            "type" : "VEC4"
        }, 
        {
            "bufferView" : 4, 
            "componentType" : 5126, 
            "count" : 136, 
            "max" : [
                0.9998286366462708, 
                0.9373441338539124, 
                0.0, 
                0.0
            ], 
            "min" : [
                0.06265584379434586, 
                0.0, 
                0.0, 
                0.0
            ], 
            "type" : "VEC4"
        }, 
        {
            "bufferView" : 5, 
            "componentType" : 5126, 
            "count" : 2, 
            "max" : [
                7.947288338527869e-08, 
                -1.0, 
                1.6689565995875455e-07, 
                0.0, 
                1.6689564574789983e-07, 
                1.6689565995875455e-07, 
                1.0, 
                0.0, 
                -1.0, 
                3.9736448798066704e-08, 
                1.6689564574789983e-07, 
                0.0, 
                0.0, 
                0.0, 
                2.728509150388969e-13, 
                1.0
            ], 
            "min" : [
                -7.947282654185983e-08, 
                -1.0, 
                1.668956173261904e-07, 
                0.0, 
                1.668956173261904e-07, 
                1.6689563153704512e-07, 
                1.0, 
                0.0, 
                -1.0, 
                -1.1920926112907182e-07, 
                1.6689563153704512e-07, 
                0.0, 
                -9.536742027194123e-07, 
                -6.0, 
                0.0, 
                1.0
            ], 
            "type" : "MAT4"
        }
    ], 
    "asset" : {
        "generator" : "Khronos Blender glTF 2.0 exporter", 
        "version" : "2.0"
    }, 
    "bufferViews" : [
        {
            "buffer" : 0, 
            "byteLength" : 204, 
            "byteOffset" : 0, 
            "target" : 34963
        }, 
        {
            "buffer" : 0, 
            "byteLength" : 1632, 
            "byteOffset" : 204, 
            "target" : 34962
        }, 
        {
            "buffer" : 0, 
            "byteLength" : 1632, 
            "byteOffset" : 1836, 
            "target" : 34962
        }, 
        {
            "buffer" : 0, 
            "byteLength" : 1088, 
            "byteOffset" : 3468, 
            "target" : 34962
        }, 
        {
            "buffer" : 0, 
            "byteLength" : 2176, 
            "byteOffset" : 4556, 
            "target" : 34962
        }, 
        {
            "buffer" : 0, 
            "byteLength" : 128, 
            "byteOffset" : 6732
        }
    ], 
    "buffers" : [
        {
            "byteLength" : 6860, 
            "uri" : "xn.bin"
        }
    ], 
    "materials" : [
        {
            "name" : "Material", 
            "pbrMetallicRoughness" : {
                "baseColorFactor" : [
                    0.6400000190734865, 
                    0.6400000190734865, 
                    0.6400000190734865, 
                    1.0
                ], 
                "metallicFactor" : 0.0
            }
        }
    ], 
    "meshes" : [
        {
            "name" : "Cube", 
            "primitives" : [
                {
                    "attributes" : {
                        "JOINTS_0" : 3, 
                        "NORMAL" : 2, 
                        "POSITION" : 1, 
                        "WEIGHTS_0" : 4
                    }, 
                    "indices" : 0, 
                    "material" : 0
                }
            ]
        }
    ], 
    "nodes" : [
        {
            "children" : [
                2, 
                4
            ], 
            "name" : "Armature"
        }, 
        {
            "name" : "Camera", 
            "rotation" : [
                0.483536034822464, 
                0.33687159419059753, 
                -0.20870360732078552, 
                0.7804827094078064
            ], 
            "translation" : [
                7.481131553649902, 
                5.34366512298584, 
                6.5076398849487305
            ]
        }, 
        {
            "mesh" : 0, 
            "name" : "Cube", 
            "skin" : 0
        }, 
        {
            "name" : "Lamp", 
            "rotation" : [
                0.16907575726509094, 
                0.7558802962303162, 
                -0.27217137813568115, 
                0.570947527885437
            ], 
            "scale" : [
                1.0, 
                1.0, 
                0.9999999403953552
            ], 
            "translation" : [
                4.076245307922363, 
                5.903861999511719, 
                -1.0054539442062378
            ]
        }, 
        {
            "children" : [
                5
            ], 
            "name" : "Armature_Bone", 
            "rotation" : [
                -0.4999999701976776, 
                0.4999999701976776, 
                0.4999999701976776, 
                0.5000000596046448
            ]
        }, 
        {
            "name" : "Armature_Bone.001", 
            "rotation" : [
                2.2500647585367226e-14, 
                -2.13154888264479e-15, 
                7.947285496356926e-08, 
                1.0
            ], 
            "translation" : [
                2.5016352379371443e-14, 
                6.0, 
                3.4104805839239166e-14
            ]
        }
    ], 
    "scene" : 0, 
    "scenes" : [
        {
            "name" : "Scene", 
            "nodes" : [
                0, 
                3, 
                1
            ]
        }
    ], 
    "skins" : [
        {
            "inverseBindMatrices" : 5, 
            "joints" : [
                4, 
                5
            ], 
            "skeleton" : 0
        }
    ]
}
