{
    "accessors" : [
        {
            "bufferView" : 0, 
            "componentType" : 5121, 
            "count" : 204, 
            "max" : [
                135
            ], 
            "min" : [
                0
            ], 
            "type" : "SCALAR"
        }, 
        {
            "bufferView" : 1, 
            "componentType" : 5126, 
            "count" : 136, 
            "max" : [
                0.9999998807907104, 
                0.9999999403953552, 
                13.264074325561523
            ], 
            "min" : [
                -1.0000001192092896, 
                -0.9999999403953552, 
                -1.0000004768371582
            ], 
            "type" : "VEC3"
        }, 
        {
            "bufferView" : 2, 
            "componentType" : 5126, 
            "count" : 136, 
            "max" : [
                1.0, 
                1.0, 
                1.0
            ], 
            "min" : [
                -1.0, 
                -1.0, 
                -1.0
            ], 
            "type" : "VEC3"
        }, 
        {
            "bufferView" : 3, 
            "componentType" : 5123, 
            "count" : 136, 
            "max" : [
                1, 
                1, 
                0, 
                0
            ], 
            "min" : [
                0, 
                0, 
                0, 
                0
            ], 
            "type" : "VEC4"
        }, 
        {
            "bufferView" : 4, 
            "componentType" : 5126, 
            "count" : 136, 
            "max" : [
                0.9998286366462708, 
                0.9373441338539124, 
                0.0, 
                0.0
            ], 
            "min" : [
                0.06265584379434586, 
                0.0, 
                0.0, 
                0.0
            ], 
            "type" : "VEC4"
        }, 
        {
            "bufferView" : 5, 
            "componentType" : 5126, 
            "count" : 2, 
            "max" : [
                -1.0, 
                1.5894572413799324e-07, 
                4.76837158203125e-07, 
                0.0, 
                4.76837158203125e-07, 
                1.668956173261904e-07, 
                1.0, 
                0.0, 
                1.5894563887286495e-07, 
                1.0, 
                3.7947669926823074e-20, 
                0.0, 
                0.0, 
                0.0, 
                1.0013741302827839e-06, 
                1.0
            ], 
            "min" : [
                -1.0, 
                -7.958203188237686e-14, 
                4.7683712978141557e-07, 
                0.0, 
                4.76837158203125e-07, 
                3.7947669926823074e-20, 
                1.0, 
                0.0, 
                -7.958203188237686e-14, 
                1.0, 
                -1.6689568838046398e-07, 
                0.0, 
                -9.5367431640625e-07, 
                -6.0, 
                0.0, 
                1.0
            ], 
            "type" : "MAT4"
        }
    ], 
    "asset" : {
        "generator" : "Khronos Blender glTF 2.0 exporter", 
        "version" : "2.0"
    }, 
    "bufferViews" : [
        {
            "buffer" : 0, 
            "byteLength" : 204, 
            "byteOffset" : 0, 
            "target" : 34963
        }, 
        {
            "buffer" : 0, 
            "byteLength" : 1632, 
            "byteOffset" : 204, 
            "target" : 34962
        }, 
        {
            "buffer" : 0, 
            "byteLength" : 1632, 
            "byteOffset" : 1836, 
            "target" : 34962
        }, 
        {
            "buffer" : 0, 
            "byteLength" : 1088, 
            "byteOffset" : 3468, 
            "target" : 34962
        }, 
        {
            "buffer" : 0, 
            "byteLength" : 2176, 
            "byteOffset" : 4556, 
            "target" : 34962
        }, 
        {
            "buffer" : 0, 
            "byteLength" : 128, 
            "byteOffset" : 6732
        }
    ], 
    "buffers" : [
        {
            "byteLength" : 6860, 
            "uri" : "yn.bin"
        }
    ], 
    "materials" : [
        {
            "name" : "Material", 
            "pbrMetallicRoughness" : {
                "baseColorFactor" : [
                    0.6400000190734865, 
                    0.6400000190734865, 
                    0.6400000190734865, 
                    1.0
                ], 
                "metallicFactor" : 0.0
            }
        }
    ], 
    "meshes" : [
        {
            "name" : "Cube", 
            "primitives" : [
                {
                    "attributes" : {
                        "JOINTS_0" : 3, 
                        "NORMAL" : 2, 
                        "POSITION" : 1, 
                        "WEIGHTS_0" : 4
                    }, 
                    "indices" : 0, 
                    "material" : 0
                }
            ]
        }
    ], 
    "nodes" : [
        {
            "children" : [
                2, 
                4
            ], 
            "name" : "Armature"
        }, 
        {
            "name" : "Camera", 
            "rotation" : [
                0.483536034822464, 
                0.33687159419059753, 
                -0.20870360732078552, 
                0.7804827094078064
            ], 
            "translation" : [
                7.481131553649902, 
                5.34366512298584, 
                6.5076398849487305
            ]
        }, 
        {
            "mesh" : 0, 
            "name" : "Cube", 
            "skin" : 0
        }, 
        {
            "name" : "Lamp", 
            "rotation" : [
                0.16907575726509094, 
                0.7558802962303162, 
                -0.27217137813568115, 
                0.570947527885437
            ], 
            "scale" : [
                1.0, 
                1.0, 
                0.9999999403953552
            ], 
            "translation" : [
                4.076245307922363, 
                5.903861999511719, 
                -1.0054539442062378
            ]
        }, 
        {
            "children" : [
                5
            ], 
            "name" : "Armature_Bone", 
            "rotation" : [
                1.6858737694747106e-07, 
                0.7071068286895752, 
                0.7071068286895752, 
                1.6858743379088992e-07
            ]
        }, 
        {
            "name" : "Armature_Bone.001", 
            "rotation" : [
                8.344784419023199e-08, 
                3.321957340012959e-21, 
                7.947286206899662e-08, 
                1.0
            ], 
            "translation" : [
                0.0, 
                6.0, 
                0.0
            ]
        }
    ], 
    "scene" : 0, 
    "scenes" : [
        {
            "name" : "Scene", 
            "nodes" : [
                0, 
                3, 
                1
            ]
        }
    ], 
    "skins" : [
        {
            "inverseBindMatrices" : 5, 
            "joints" : [
                4, 
                5
            ], 
            "skeleton" : 0
        }
    ]
}
